<?xml version="1.0" encoding="UTF-8" ?>
<!DOCTYPE svg PUBLIC "-//W3C//DTD SVG 1.1//EN" "http://www.w3.org/Graphics/SVG/1.1/DTD/svg11.dtd">
<svg width="1200pt" height="630pt" viewBox="0 0 1200 630" version="1.1" xmlns="http://www.w3.org/2000/svg">
<g id="#0097dcff">
<path fill="#0097dc" opacity="1.00" d=" M 71.80 203.74 C 79.22 193.15 90.60 184.11 103.96 183.45 C 173.31 183.45 242.66 183.45 312.00 183.45 C 316.25 183.43 320.52 183.66 324.74 183.05 C 324.48 206.23 324.77 229.41 324.60 252.58 C 260.73 252.27 196.86 252.57 132.99 252.43 C 131.11 252.60 128.99 252.19 127.30 253.18 C 121.80 257.42 120.85 266.20 125.55 271.42 C 126.48 272.95 128.15 273.81 129.94 273.63 C 177.98 273.68 226.02 273.63 274.05 273.66 C 283.03 274.03 291.55 277.96 298.43 283.61 C 310.46 294.35 317.56 309.52 321.57 324.91 C 322.51 330.93 323.80 336.92 324.51 342.97 C 324.36 352.98 325.36 363.14 323.30 373.02 C 322.40 379.18 321.06 385.27 318.82 391.10 C 316.83 399.12 312.39 406.19 308.22 413.22 C 300.72 423.29 290.02 432.44 277.05 433.48 C 211.36 433.62 145.68 433.51 80.00 433.54 C 71.42 433.47 62.84 433.69 54.26 433.39 C 54.66 430.93 55.36 428.50 55.31 426.00 C 55.28 405.66 55.26 385.32 55.31 364.98 L 55.99 364.40 C 109.32 364.29 162.66 364.39 216.00 364.36 C 228.16 364.18 240.35 364.67 252.49 364.21 C 257.43 359.88 259.00 351.56 254.88 346.07 C 253.59 343.57 250.53 343.33 248.05 343.36 C 201.01 343.34 153.97 343.39 106.94 343.34 C 102.33 342.34 97.24 343.13 93.09 340.54 C 83.35 336.62 75.71 328.76 70.14 320.04 C 62.11 307.78 57.99 293.38 55.71 279.03 C 55.29 269.03 55.12 259.01 55.64 249.01 C 57.59 233.00 62.43 217.04 71.80 203.74 Z" />
<path fill="#0097dc" opacity="1.00" d=" M 349.42 185.53 C 372.00 185.07 394.60 185.47 417.18 185.34 C 416.42 201.88 416.87 218.45 416.76 235.00 C 416.80 249.33 416.66 263.67 416.84 278.00 C 417.50 283.56 417.13 289.16 417.37 294.74 C 417.92 294.72 419.02 294.70 419.57 294.68 C 437.52 275.94 456.41 258.10 474.70 239.71 C 483.43 230.13 493.62 221.98 502.22 212.28 C 507.97 207.02 513.61 201.61 518.83 195.82 C 521.63 192.00 525.45 189.14 528.99 186.05 C 530.03 185.06 531.63 185.48 532.94 185.32 C 554.62 185.36 576.31 185.32 598.00 185.34 C 601.02 185.38 604.00 184.06 607.00 185.08 C 610.50 186.10 614.15 183.10 617.37 185.69 C 611.51 192.38 605.25 198.70 598.57 204.55 C 594.92 209.23 590.38 213.01 586.06 217.04 C 579.18 224.52 571.36 231.07 564.59 238.67 C 546.13 256.51 528.05 274.74 509.84 292.84 C 504.73 297.77 499.33 302.40 494.61 307.71 C 492.96 309.10 493.10 311.91 494.87 313.15 C 512.57 330.42 529.98 348.00 547.59 365.38 C 553.53 370.43 558.41 376.57 564.11 381.88 C 581.17 398.50 598.10 415.24 615.00 432.02 C 616.38 433.33 617.51 434.88 618.22 436.66 C 613.35 434.78 608.09 435.57 603.00 435.44 C 578.94 435.48 554.73 435.42 530.75 435.48 C 526.52 433.49 523.90 429.48 520.55 426.41 C 507.53 413.76 494.88 400.74 481.92 388.02 C 476.67 384.00 472.97 378.38 467.85 374.20 C 464.82 371.92 462.63 368.80 459.97 366.15 C 453.83 359.92 447.44 353.92 441.38 347.62 C 433.10 340.43 426.27 331.70 417.59 324.97 C 416.75 334.62 417.81 344.35 416.79 354.00 C 416.72 373.33 416.75 392.67 416.78 412.00 C 417.49 419.56 417.20 427.15 417.40 434.73 C 394.78 434.76 372.15 434.82 349.53 434.69 C 349.60 367.46 349.54 300.23 349.56 233.00 C 349.46 217.18 349.76 201.35 349.42 185.53 Z" />
</g>
<g id="#000000ff">
<path fill="#000000" opacity="1.00" d=" M 1038.52 311.52 C 1055.40 294.65 1082.05 288.85 1104.57 296.45 C 1108.49 297.69 1112.26 299.33 1115.97 301.10 C 1118.88 302.37 1122.30 303.87 1125.45 302.47 C 1128.07 300.90 1128.52 297.61 1129.22 294.92 C 1130.53 294.85 1131.85 294.78 1133.18 294.72 C 1133.30 309.28 1133.30 323.85 1133.19 338.41 C 1131.74 338.43 1130.31 338.45 1128.89 338.49 C 1126.74 328.87 1122.85 319.31 1115.59 312.40 C 1107.79 304.38 1095.41 301.41 1084.78 304.78 C 1076.79 307.37 1070.96 314.20 1067.43 321.58 C 1061.98 332.90 1060.30 345.60 1059.78 358.03 C 1059.54 374.82 1059.72 392.18 1065.89 408.04 C 1069.03 416.15 1075.34 424.00 1084.38 425.44 C 1089.79 426.14 1096.08 425.93 1100.63 422.65 C 1100.97 413.44 1100.61 404.22 1100.76 395.00 C 1100.70 389.34 1101.34 383.02 1097.87 378.14 C 1095.07 374.61 1090.28 373.95 1086.11 373.39 C 1086.04 371.53 1085.99 369.68 1085.96 367.83 C 1106.74 367.68 1127.52 367.71 1148.30 367.81 C 1148.26 369.48 1148.29 371.15 1148.16 372.82 C 1145.06 374.49 1141.07 374.82 1138.86 377.85 C 1135.82 381.89 1135.84 387.22 1135.58 392.04 C 1135.39 401.87 1135.57 411.71 1135.50 421.55 C 1125.87 426.40 1115.81 430.50 1105.33 433.12 C 1090.68 436.72 1074.88 436.51 1060.61 431.39 C 1047.40 426.63 1036.25 416.81 1029.44 404.58 C 1021.06 389.95 1018.93 372.57 1019.94 355.97 C 1020.98 339.71 1026.71 323.13 1038.52 311.52 Z" />
<path fill="#000000" opacity="1.00" d=" M 928.33 294.29 C 945.88 291.96 964.87 294.09 979.83 304.19 C 994.23 313.68 1003.42 329.76 1006.30 346.57 C 1008.68 360.54 1008.39 375.08 1004.78 388.81 C 1000.42 405.34 989.28 420.15 974.04 428.08 C 960.08 435.34 943.73 436.71 928.32 434.73 C 914.03 432.91 900.22 426.21 890.72 415.26 C 878.40 401.74 873.52 382.95 873.71 365.00 C 873.46 347.44 877.83 329.08 889.37 315.43 C 899.01 303.69 913.31 296.19 928.33 294.29 M 936.29 303.30 C 927.69 304.83 922.05 312.60 919.33 320.38 C 913.55 336.90 913.60 354.69 913.77 371.98 C 914.17 384.33 915.18 396.90 919.43 408.60 C 921.85 415.13 925.99 421.63 932.60 424.50 C 939.61 427.43 948.45 426.37 954.10 421.11 C 959.09 416.50 961.74 410.00 963.64 403.62 C 966.83 392.05 967.60 379.96 967.50 368.00 C 967.61 355.19 967.11 342.28 964.49 329.71 C 962.82 322.04 960.25 314.11 954.57 308.43 C 949.86 303.71 942.73 302.08 936.29 303.30 Z" />
<path fill="#000000" opacity="1.00" d=" M 631.04 296.26 C 648.36 296.24 665.68 296.26 683.00 296.25 C 692.88 296.30 702.83 295.97 712.65 297.32 C 721.39 298.62 730.44 301.75 736.41 308.59 C 741.98 314.94 743.81 323.74 743.22 331.99 C 743.01 340.07 739.87 348.30 733.63 353.64 C 730.23 356.79 725.89 358.54 721.68 360.30 C 728.47 362.95 735.44 366.06 740.10 371.92 C 747.33 380.45 748.93 392.45 747.14 403.19 C 745.17 414.70 736.85 424.68 726.15 429.17 C 717.83 432.28 708.76 432.30 700.00 432.26 C 677.00 432.21 654.00 432.33 631.00 432.20 C 630.99 430.53 630.99 428.87 631.00 427.21 C 635.18 426.73 639.99 426.36 642.93 422.94 C 645.90 419.39 646.60 414.54 646.75 410.05 C 646.76 380.02 646.72 349.98 646.76 319.94 C 646.69 315.14 646.12 309.88 642.93 306.07 C 639.94 302.69 635.23 302.08 631.02 301.58 C 631.01 299.80 631.02 298.03 631.04 296.26 M 684.28 306.04 C 684.16 323.16 684.36 340.28 684.19 357.41 C 689.36 357.73 694.94 356.51 698.69 352.72 C 703.28 348.08 704.74 341.32 705.19 335.02 C 705.50 328.01 705.20 320.58 701.84 314.25 C 699.10 309.04 693.82 305.36 687.96 304.71 C 686.67 304.57 683.93 303.73 684.28 306.04 M 684.30 365.20 C 684.22 378.81 684.23 392.43 684.29 406.04 C 684.53 411.50 684.38 417.57 687.85 422.15 C 691.50 426.50 698.71 425.07 702.18 421.19 C 707.35 415.47 708.78 407.43 709.23 399.98 C 709.80 389.90 708.15 378.74 700.65 371.34 C 696.41 366.92 690.21 365.46 684.30 365.20 Z" />
<path fill="#000000" opacity="1.00" d=" M 758.65 296.22 C 781.83 296.29 805.02 296.23 828.21 296.25 C 828.18 298.01 828.15 299.77 828.10 301.54 C 823.71 302.19 818.59 302.90 815.83 306.81 C 812.44 311.85 812.76 318.21 812.52 324.02 C 812.52 351.33 812.47 378.65 812.54 405.97 C 812.88 411.03 812.44 416.90 816.06 420.95 C 819.54 424.08 824.66 423.67 829.01 423.32 C 838.64 422.28 846.76 415.61 851.43 407.37 C 856.46 399.02 858.75 389.39 860.16 379.84 C 861.83 379.92 863.50 380.03 865.20 380.14 C 864.10 397.49 862.11 414.77 860.73 432.10 C 826.67 432.40 792.60 432.26 758.54 432.17 C 758.54 430.51 758.57 428.86 758.61 427.21 C 762.87 426.79 767.73 426.19 770.67 422.68 C 773.49 419.14 774.17 414.41 774.26 410.02 C 774.24 382.68 774.25 355.34 774.25 328.00 C 774.10 321.16 775.16 313.69 771.49 307.52 C 769.17 303.49 764.31 302.46 760.11 301.67 C 757.28 301.44 758.92 298.02 758.65 296.22 Z" />
</g>
</svg>
