<?xml version="1.0" encoding="UTF-8" ?>
<!DOCTYPE svg PUBLIC "-//W3C//DTD SVG 1.1//EN" "http://www.w3.org/Graphics/SVG/1.1/DTD/svg11.dtd">
<svg width="794pt" height="154pt" viewBox="0 0 794 154" version="1.1" xmlns="http://www.w3.org/2000/svg">
<g id="#0097dcff">
<path fill="#0097dc" opacity="1.00" d=" M 29.04 3.79 C 34.12 1.87 39.61 1.36 45.00 1.58 C 97.98 1.64 150.96 1.55 203.94 1.63 C 205.59 1.62 207.23 1.47 208.86 1.16 C 209.40 3.43 209.27 5.76 208.98 8.06 C 208.54 11.70 209.97 15.42 208.77 18.99 C 209.38 20.55 209.13 22.19 208.94 23.80 C 208.39 27.20 209.82 30.62 208.87 33.99 C 209.46 36.83 209.19 39.74 209.22 42.62 C 159.51 42.93 109.77 42.52 60.05 42.82 C 55.60 42.60 52.29 47.63 53.97 51.66 C 54.75 53.06 55.92 54.19 56.94 55.41 C 60.96 55.74 65.00 55.63 69.03 55.63 C 102.67 55.64 136.32 55.63 169.97 55.64 C 182.13 55.83 193.49 62.92 200.04 72.99 C 206.10 81.71 209.02 92.42 208.86 102.99 C 208.58 106.63 209.11 110.39 208.02 113.93 C 205.53 128.73 196.34 143.36 181.88 148.85 C 177.46 150.61 172.70 151.38 167.95 151.27 C 112.38 151.17 56.81 151.47 1.25 151.12 C 2.08 137.34 1.41 123.47 1.60 109.66 C 52.48 109.51 103.37 109.79 154.24 109.52 C 155.45 107.76 156.45 105.87 157.30 103.91 C 156.85 101.56 155.91 99.37 154.27 97.59 C 151.24 96.93 147.70 98.02 145.00 96.48 C 143.70 97.82 141.61 97.05 139.97 97.26 C 127.22 97.11 114.46 97.42 101.73 97.11 L 101.00 96.34 C 99.93 97.99 97.61 96.97 95.99 97.26 C 78.01 97.19 60.04 97.27 42.06 97.22 C 38.98 96.94 35.92 96.47 32.82 96.45 C 30.27 94.88 27.20 94.47 24.67 92.84 C 13.55 86.70 6.32 75.20 3.18 63.12 C 0.20 49.63 1.40 34.91 8.19 22.71 C 12.80 14.36 20.00 7.17 29.04 3.79 Z" />
<path fill="#0097dc" opacity="1.00" d=" M 228.38 152.42 C 228.06 102.48 228.30 52.54 228.26 2.60 C 245.44 2.57 262.62 2.65 279.80 2.57 C 279.66 23.05 279.70 43.53 279.80 64.01 C 279.67 65.72 279.98 67.39 280.82 68.89 C 306.03 49.00 331.70 29.71 357.03 10.00 C 359.83 7.05 363.40 5.06 366.63 2.65 C 389.33 2.57 412.05 2.59 434.74 2.56 C 402.75 27.44 370.52 52.04 338.39 76.78 C 338.66 79.17 341.04 80.08 342.65 81.43 C 372.48 104.22 402.07 127.31 431.90 150.10 C 433.00 150.88 433.99 151.80 434.45 153.12 C 432.96 152.77 431.51 152.20 429.96 152.27 C 410.63 152.29 391.29 152.37 371.96 152.25 C 370.70 152.18 369.47 152.42 368.29 152.81 C 367.00 152.21 365.72 151.60 364.50 150.88 C 336.69 129.20 308.66 107.82 280.80 86.18 C 278.92 88.74 280.58 92.07 279.90 94.98 C 279.70 114.07 279.38 133.19 280.24 152.27 C 262.95 152.44 245.66 152.12 228.38 152.42 Z" />
</g>
<g id="#000000ff">
<path fill="#000000" opacity="1.00" d=" M 653.48 4.66 C 662.15 3.09 671.33 3.35 679.69 6.31 C 686.76 8.82 692.80 14.14 695.95 20.98 C 698.83 26.85 699.50 33.49 699.51 39.95 C 699.48 64.65 699.53 89.35 699.48 114.04 C 699.45 122.45 697.38 131.27 691.69 137.71 C 686.11 144.31 677.57 147.71 669.12 148.53 C 660.02 149.34 650.33 148.49 642.34 143.71 C 635.44 139.78 630.65 132.72 628.89 125.05 C 627.31 119.17 627.81 113.04 627.75 107.03 C 627.74 83.69 627.77 60.35 627.74 37.01 C 627.79 28.71 630.28 20.10 636.04 13.93 C 640.59 8.96 646.93 5.96 653.48 4.66 M 658.47 25.73 C 655.19 26.55 652.35 28.88 650.99 31.99 C 649.18 36.06 649.53 40.62 649.49 44.96 C 649.50 66.66 649.52 88.35 649.48 110.04 C 649.48 114.32 649.60 119.02 652.38 122.53 C 656.63 128.02 664.95 128.42 670.93 125.84 C 676.17 123.47 677.71 117.26 677.71 111.99 C 677.81 89.00 677.71 66.01 677.75 43.01 C 677.67 38.18 677.59 32.70 674.00 29.00 C 670.02 25.02 663.71 24.33 658.47 25.73 Z" />
<path fill="#000000" opacity="1.00" d=" M 727.13 13.14 C 732.55 7.45 740.33 4.56 748.05 3.93 C 756.54 3.18 765.58 4.36 772.84 9.09 C 779.07 13.12 783.25 19.78 785.04 26.91 C 786.92 33.85 786.48 41.10 786.49 48.21 C 778.99 48.29 771.49 48.24 764.00 48.25 C 763.79 42.26 764.86 35.71 761.73 30.27 C 757.43 22.96 744.90 23.87 741.36 31.44 C 739.72 34.69 739.49 38.40 739.49 41.98 C 739.52 65.65 739.49 89.33 739.50 113.01 C 739.40 117.32 740.58 122.18 744.38 124.72 C 751.25 129.44 763.50 127.54 765.53 118.41 C 767.03 109.46 765.90 100.29 766.24 91.25 C 761.57 91.25 756.90 91.26 752.24 91.24 C 752.25 84.34 752.24 77.45 752.25 70.56 C 764.06 70.40 775.88 70.58 787.69 70.46 C 787.82 83.96 787.72 97.46 787.75 110.95 C 787.76 119.01 786.62 127.38 782.22 134.31 C 777.47 142.17 768.83 147.16 759.82 148.31 C 749.31 149.69 737.76 148.39 729.17 141.70 C 721.41 135.66 717.84 125.62 717.74 116.02 C 717.76 90.00 717.75 63.99 717.75 37.97 C 717.98 29.00 720.71 19.67 727.13 13.14 Z" />
<path fill="#000000" opacity="1.00" d=" M 470.45 5.37 C 481.31 5.09 492.18 5.33 503.04 5.24 C 512.18 4.78 522.23 6.41 529.00 13.08 C 535.39 19.20 536.90 28.51 536.75 36.97 C 536.52 45.67 537.88 55.19 533.15 63.01 C 529.97 68.62 524.06 71.99 517.98 73.59 C 525.47 74.60 532.59 79.16 535.83 86.11 C 539.74 93.84 538.19 102.73 538.50 111.04 C 538.71 119.68 538.62 129.10 533.27 136.37 C 528.04 143.76 518.76 147.21 509.94 147.26 C 496.79 147.24 483.65 147.26 470.51 147.25 C 470.46 99.95 470.56 52.66 470.45 5.37 M 492.00 25.50 C 492.00 38.17 492.00 50.83 492.00 63.49 C 497.86 63.11 504.01 64.46 509.66 62.49 C 516.31 58.96 515.17 50.31 515.25 43.98 C 515.04 38.29 516.60 30.69 510.89 27.11 C 505.08 24.18 498.25 26.00 492.00 25.50 M 492.00 83.76 C 492.00 98.17 492.00 112.58 492.00 127.00 C 497.86 126.82 503.79 127.48 509.59 126.46 C 513.61 125.75 516.60 122.07 516.68 118.02 C 516.81 110.78 516.80 103.52 516.67 96.28 C 516.60 91.25 513.84 85.82 508.69 84.45 C 503.22 83.19 497.56 83.95 492.00 83.76 Z" />
<path fill="#000000" opacity="1.00" d=" M 554.28 5.28 C 561.43 5.22 568.59 5.26 575.75 5.25 C 575.79 45.76 575.69 86.27 575.80 126.78 C 588.70 126.71 601.59 126.76 614.49 126.75 C 614.50 133.57 614.51 140.39 614.49 147.21 C 594.41 147.29 574.33 147.24 554.25 147.24 C 554.27 99.92 554.21 52.60 554.28 5.28 Z" />
</g>
</svg>
