<?xml version="1.0" encoding="UTF-8" ?>
<!DOCTYPE svg PUBLIC "-//W3C//DTD SVG 1.1//EN" "http://www.w3.org/Graphics/SVG/1.1/DTD/svg11.dtd">
<svg width="1200pt" height="630pt" viewBox="0 0 1200 630" version="1.1" xmlns="http://www.w3.org/2000/svg">
<g id="#0097dcff">
<path fill="#0097dc" opacity="1.00" d=" M 345.02 229.60 C 346.73 229.60 348.45 229.46 350.16 229.30 C 350.24 237.54 350.36 245.80 349.85 254.02 C 350.32 259.57 350.24 265.13 350.21 270.69 C 300.78 270.79 251.34 270.67 201.91 270.74 C 198.21 270.42 194.73 273.19 194.55 276.94 C 194.24 279.61 196.36 281.49 197.82 283.42 C 231.22 283.92 264.63 283.49 298.03 283.63 C 306.02 283.85 314.34 282.70 321.97 285.73 C 333.15 289.59 341.45 299.24 345.90 309.94 C 350.05 319.53 350.40 330.22 349.39 340.48 C 347.23 353.08 341.10 365.74 330.20 372.96 C 324.67 376.12 318.59 378.94 312.08 378.81 C 255.75 378.81 199.42 378.80 143.09 378.81 C 143.21 365.09 143.07 351.36 143.16 337.64 C 193.86 337.53 244.56 337.77 295.25 337.53 C 295.87 336.68 296.48 335.83 297.06 334.96 C 298.95 332.06 298.39 327.84 295.48 325.84 C 291.90 324.16 287.82 324.71 284.00 324.62 C 248.79 324.70 213.57 324.62 178.36 324.66 C 176.88 324.63 175.39 324.52 173.92 324.44 C 170.46 322.82 166.72 321.76 163.55 319.58 C 150.46 311.01 143.13 295.32 142.72 279.93 C 141.49 261.23 150.48 240.98 167.89 232.57 C 172.09 230.96 176.48 229.67 181.02 229.59 C 235.68 229.62 290.35 229.59 345.02 229.60 Z" />
<path fill="#0097dc" opacity="1.00" d=" M 507.67 230.65 C 530.35 230.55 553.04 230.64 575.72 230.52 C 543.74 255.58 511.31 280.07 479.20 304.98 C 479.98 306.09 480.63 307.39 481.88 308.10 C 512.13 331.16 542.10 354.58 572.34 377.67 C 573.57 378.63 574.65 379.77 575.74 380.90 C 573.49 380.53 571.23 380.22 568.96 380.27 C 552.29 380.30 535.61 380.34 518.94 380.28 C 515.67 380.32 512.34 380.00 509.13 380.75 C 506.22 379.52 503.71 377.62 501.36 375.55 C 474.69 355.15 448.24 334.49 421.56 314.10 C 420.26 318.95 421.08 324.03 420.77 328.99 C 420.84 346.08 420.30 363.20 421.27 380.27 C 403.94 380.37 386.61 380.25 369.28 380.31 C 369.18 330.42 369.26 280.52 369.24 230.62 C 386.43 230.56 403.62 230.65 420.81 230.58 C 420.64 249.05 420.74 267.52 420.76 285.99 C 420.87 289.65 420.44 293.41 421.67 296.95 C 436.19 285.38 451.13 274.32 465.74 262.87 C 472.52 257.32 479.87 252.49 486.47 246.73 C 493.95 241.90 500.19 235.46 507.67 230.65 Z" />
</g>
<g id="#000000ff">
<path fill="#000000" opacity="1.00" d=" M 800.46 237.67 C 809.13 236.08 818.30 236.35 826.67 239.31 C 833.74 241.80 839.80 247.13 842.95 253.97 C 845.83 259.85 846.50 266.50 846.51 272.97 C 846.48 297.68 846.53 322.39 846.48 347.10 C 846.44 355.47 844.38 364.23 838.74 370.66 C 833.14 377.30 824.57 380.72 816.08 381.53 C 807.00 382.34 797.35 381.48 789.38 376.73 C 782.77 372.97 778.05 366.35 776.15 359.04 C 774.31 352.85 774.78 346.34 774.75 339.98 C 774.74 316.64 774.76 293.30 774.74 269.97 C 774.80 261.71 777.26 253.17 782.96 247.02 C 787.51 242.00 793.88 238.98 800.46 237.67 M 805.45 258.73 C 799.50 260.07 796.38 266.34 796.55 272.05 C 796.44 296.36 796.53 320.69 796.51 345.01 C 796.45 349.64 797.60 354.77 801.51 357.69 C 806.41 361.11 813.32 361.15 818.57 358.51 C 823.72 355.70 824.74 349.33 824.74 344.00 C 824.77 321.32 824.73 298.65 824.76 275.98 C 824.67 271.16 824.57 265.70 821.01 262.00 C 817.01 258.01 810.70 257.33 805.45 258.73 Z" />
<path fill="#000000" opacity="1.00" d=" M 874.62 245.65 C 880.49 239.77 888.88 237.14 897.03 236.78 C 905.57 236.36 914.66 237.96 921.56 243.32 C 927.71 248.01 931.37 255.34 932.69 262.85 C 933.83 268.90 933.46 275.09 933.49 281.22 C 925.99 281.28 918.49 281.24 911.00 281.25 C 910.80 275.27 911.85 268.73 908.74 263.30 C 904.47 255.96 891.93 256.86 888.37 264.42 C 886.72 267.67 886.51 271.40 886.49 274.98 C 886.52 298.67 886.49 322.36 886.50 346.04 C 886.42 350.35 887.58 355.19 891.38 357.72 C 898.26 362.44 910.50 360.53 912.53 351.41 C 914.05 342.46 912.89 333.29 913.24 324.25 C 908.57 324.25 903.91 324.25 899.25 324.25 C 899.23 317.36 899.29 310.48 899.20 303.60 C 911.05 303.36 922.89 303.57 934.74 303.49 C 934.75 317.33 934.78 331.17 934.73 345.01 C 934.68 352.72 933.41 360.70 929.22 367.32 C 924.47 375.17 915.82 380.15 906.82 381.32 C 897.50 382.50 887.48 381.69 879.25 376.80 C 872.69 373.03 868.07 366.37 866.18 359.10 C 864.23 352.58 864.81 345.72 864.75 339.02 C 864.74 316.67 864.77 294.32 864.73 271.98 C 864.78 262.45 867.62 252.43 874.62 245.65 Z" />
<path fill="#000000" opacity="1.00" d=" M 617.49 238.31 C 630.01 238.17 642.54 238.27 655.06 238.25 C 664.21 238.38 674.03 241.92 679.14 249.92 C 683.82 257.00 683.83 265.79 683.77 273.96 C 683.71 281.38 684.22 289.44 680.14 296.02 C 676.95 301.62 671.05 305.06 664.92 306.52 C 672.40 307.64 679.57 312.09 682.82 319.09 C 686.46 326.18 685.34 334.36 685.50 342.03 C 685.53 350.40 686.09 359.36 681.82 366.92 C 677.24 375.51 667.39 380.01 657.95 380.23 C 644.47 380.29 630.98 380.23 617.50 380.25 C 617.49 332.94 617.51 285.62 617.49 238.31 M 639.00 258.51 C 639.00 271.17 639.00 283.83 639.00 296.49 C 643.97 296.38 648.97 296.79 653.93 296.28 C 658.55 295.87 661.57 291.41 661.94 287.07 C 662.52 280.77 662.27 274.40 662.15 268.09 C 662.14 263.88 659.27 259.71 655.01 258.93 C 649.72 258.04 644.33 258.67 639.00 258.51 M 639.00 316.76 C 639.00 331.17 639.00 345.58 639.00 360.00 C 644.86 359.83 650.79 360.47 656.59 359.46 C 660.61 358.74 663.60 355.08 663.67 351.03 C 663.88 344.34 663.71 337.64 663.74 330.94 C 663.83 325.89 662.05 320.07 657.02 317.94 C 651.26 315.89 644.99 317.04 639.00 316.76 Z" />
<path fill="#000000" opacity="1.00" d=" M 701.27 238.27 C 708.43 238.22 715.59 238.25 722.75 238.25 C 722.76 278.75 722.74 319.25 722.76 359.75 C 735.67 359.75 748.58 359.75 761.50 359.75 C 761.50 366.57 761.51 373.40 761.49 380.22 C 741.41 380.29 721.33 380.24 701.25 380.25 C 701.26 332.92 701.21 285.60 701.27 238.27 Z" />
</g>
<g id="#1c658a47">
<path fill="#1c658a" opacity="0.28" d=" M 178.36 324.66 C 213.57 324.62 248.79 324.70 284.00 324.62 C 287.82 324.71 291.90 324.16 295.48 325.84 C 298.39 327.84 298.95 332.06 297.06 334.96 C 298.41 331.65 297.37 328.32 295.15 325.71 C 287.45 325.34 279.74 325.51 272.04 325.48 C 242.34 325.49 212.64 325.45 182.95 325.50 C 181.38 325.49 179.85 325.11 178.36 324.66 Z" />
<path fill="#1c658a" opacity="0.28" d=" M 142.24 337.57 L 143.16 337.64 C 143.07 351.36 143.21 365.09 143.09 378.81 C 199.42 378.80 255.75 378.81 312.08 378.81 C 318.59 378.94 324.67 376.12 330.20 372.96 C 324.46 378.00 316.49 379.52 309.05 379.53 C 255.36 379.54 201.67 379.53 147.98 379.54 C 145.95 379.51 143.92 379.41 141.90 379.25 C 142.69 365.38 142.05 351.46 142.24 337.57 Z" />
</g>
</svg>
